<svg xmlns="http://www.w3.org/2000/svg" viewBox="0 0 1024 1024">
  <defs>
    <linearGradient id="background" x1="120" y1="80" x2="900" y2="944" gradientUnits="userSpaceOnUse">
      <stop stop-color="#12314d"/>
      <stop offset="1" stop-color="#071827"/>
    </linearGradient>
    <linearGradient id="shield" x1="270" y1="230" x2="760" y2="825" gradientUnits="userSpaceOnUse">
      <stop stop-color="#34d3b4"/>
      <stop offset="1" stop-color="#13977f"/>
    </linearGradient>
  </defs>
  <rect x="32" y="32" width="960" height="960" rx="224" fill="url(#background)"/>
  <path d="M512 174c118 83 239 102 307 106v207c0 178-106 299-307 377-201-78-307-199-307-377V280c68-4 189-23 307-106Z" fill="url(#shield)"/>
  <path d="M512 219c100 66 197 85 259 94v174c0 147-84 248-259 318-175-70-259-171-259-318V313c62-9 159-28 259-94Z" fill="none" stroke="#8cf0dc" stroke-opacity=".48" stroke-width="18"/>
  <path d="M326 378h78l61 244 50-197h70l50 197 61-244h78L671 696h-77l-44-170-44 170h-77L326 378Z" fill="#fff"/>
</svg>
